<?xml version="1.0" encoding="utf-8"?>
<!-- Generator: Adobe Illustrator 24.2.3, SVG Export Plug-In . SVG Version: 6.00 Build 0)  -->
<svg version="1.1" id="Capa_1" xmlns="http://www.w3.org/2000/svg" xmlns:xlink="http://www.w3.org/1999/xlink" x="0px" y="0px"
	 viewBox="0 0 160.89 226.7" style="enable-background:new 0 0 160.89 226.7;" xml:space="preserve">
<style type="text/css">
	.st0{fill:#0BAF2A;}
</style>
<path class="st0" d="M159.37,63.62c-2.47-19.03-8.55-37-17.74-53.87c-1.63-3-3.42-5.89-5.11-8.79c-0.51,0.25-0.65,0.3-0.76,0.4
	c-0.57,0.46-1.12,0.97-1.67,1.46c-11.76,10.39-24.67,18.82-39.41,24.56c-11,4.29-21.84,9.1-32.29,14.57
	C44.87,51.14,29.3,62.99,17.2,78.93C6.79,92.68,0.52,108.08-0.9,125.29c-1.58,19.32,2.53,37.53,11.23,54.76
	c0.87,1.71,1.99,3.32,3.13,5.22c0.63-0.95,1.01-1.48,1.37-2.03c5.24-8.07,11.19-15.5,18.96-21.29
	c14.97-11.13,28.78-23.55,41.22-37.46c13.2-14.74,24.56-30.77,33.47-48.47c2.6-5.13,4.9-10.41,7.33-15.63
	c-0.02,0.8-0.19,1.56-0.49,2.28c-3.65,8.89-6.91,17.97-11.11,26.59c-14.99,30.75-35.58,57.02-63.42,77.25
	c-5.64,4.1-10.09,9.19-13.6,15.14c-6.76,11.45-10.79,23.91-13.6,36.81c-0.59,2.72-0.91,5.49-1.33,8.24c0,0,0.02-0.02,0.08-0.06
	c1.25-0.89,17.68-12.54,32.52-18.77c3.82-1.58,7.52-2.83,10.85-3.44c16.81-3.04,58.29-24.64,71.65-40.36
	c0.06-0.06,0.11-0.13,0.15-0.19c12.04-11.55,20.91-25.98,27.2-42.62C161.82,102.54,161.91,83.11,159.37,63.62z"/>
</svg>
